<?xml version="1.0" standalone="no"?>
<!DOCTYPE svg PUBLIC "-//W3C//DTD SVG 20010904//EN"
 "http://www.w3.org/TR/2001/REC-SVG-20010904/DTD/svg10.dtd">
<svg version="1.0" xmlns="http://www.w3.org/2000/svg"
 width="601.000000pt" height="526.000000pt" viewBox="0 0 601.000000 526.000000"
 preserveAspectRatio="xMidYMid meet">
<metadata>
Created by potrace 1.16, written by Peter Selinger 2001-2019
</metadata>
<g transform="translate(0.000000,526.000000) scale(0.100000,-0.100000)"
fill="#000000" stroke="none">
<path d="M2668 4045 c28 -30 62 -80 77 -110 24 -52 28 -55 61 -55 29 0 45 -8
75 -39 32 -32 39 -46 39 -77 0 -71 -61 -134 -129 -134 -17 0 -51 -43 -51 -65
0 -18 84 2 196 47 126 52 131 53 229 52 76 0 109 -4 140 -19 l40 -19 -85 -12
c-168 -26 -295 -88 -406 -198 -115 -115 -165 -251 -150 -407 18 -197 127 -307
308 -312 l63 -2 3 255 2 256 80 10 c203 28 359 178 390 377 34 217 -110 436
-324 493 -37 10 -126 14 -330 14 l-278 0 50 -55z"/>
<path d="M2741 3804 c-42 -54 -13 -118 54 -118 67 0 96 64 54 118 -15 19 -30
26 -54 26 -24 0 -39 -7 -54 -26z"/>
<path d="M665 2831 c-106 -26 -199 -100 -247 -199 l-33 -67 0 -615 0 -615 29
-60 c54 -109 151 -183 268 -205 69 -13 4177 -13 4246 0 114 21 207 89 263 192
l34 63 0 625 0 625 -34 63 c-41 75 -103 135 -179 170 l-57 27 -660 3 -660 2
-70 -67 c-144 -139 -305 -230 -495 -279 -91 -24 -125 -28 -255 -28 -150 -1
-209 7 -331 44 -151 46 -314 143 -435 260 l-72 70 -641 -1 c-353 -1 -654 -4
-671 -8z m566 -365 c179 -38 275 -141 273 -291 -1 -77 -21 -140 -61 -198 -29
-42 -140 -124 -247 -183 -61 -33 -79 -38 -154 -42 l-85 -5 6 -228 c3 -126 3
-230 -1 -233 -4 -2 -61 -6 -126 -7 l-120 -4 0 597 -1 597 80 4 c214 8 373 6
436 -7z m2994 -78 c161 -524 262 -839 270 -839 5 0 79 199 165 443 86 244 159
449 164 456 4 7 32 12 72 12 58 0 65 -2 60 -17 -4 -10 -100 -274 -214 -588
l-208 -570 -78 -5 c-43 -3 -81 -3 -85 0 -4 3 -33 86 -64 185 -32 99 -117 363
-191 587 -73 224 -131 410 -128 413 3 3 52 5 108 5 l103 0 26 -82z m-2342
-627 c98 -243 177 -445 174 -447 -2 -2 -37 -11 -76 -18 -86 -17 -74 -30 -144
154 l-52 135 -140 0 -140 0 -48 -142 -49 -142 -45 -7 c-56 -8 -70 3 -50 42 8
16 72 191 142 389 l126 359 -16 44 c-10 24 -15 45 -13 48 6 6 131 32 142 30 6
-1 90 -201 189 -445z m1267 429 c41 -21 96 -83 86 -98 -3 -5 -34 -28 -70 -50
l-64 -40 -39 40 c-30 30 -50 41 -83 45 -56 8 -70 -10 -70 -91 0 -91 18 -113
141 -176 57 -29 115 -62 127 -74 66 -59 82 -177 38 -271 -26 -58 -126 -153
-193 -186 -46 -22 -102 -20 -154 7 -39 20 -101 95 -90 108 5 6 39 27 74 46
l65 35 39 -43 c28 -31 48 -44 75 -49 36 -5 39 -4 53 30 19 46 19 108 1 151
-12 29 -31 43 -114 85 -54 28 -116 68 -136 88 -105 105 -71 292 71 396 90 65
175 82 243 47z m-612 -22 c165 -85 142 -307 -41 -399 -23 -12 -44 -23 -46 -25
-2 -1 56 -89 128 -194 73 -105 130 -194 127 -198 -2 -4 -34 -23 -71 -42 -56
-30 -67 -33 -75 -20 -42 72 -248 364 -255 362 -6 -1 -9 -71 -6 -176 l3 -174
-81 -7 c-45 -4 -85 -5 -88 -2 -3 3 -5 205 -5 449 l0 443 103 6 c172 10 254 4
307 -23z m992 -170 l-1 -188 167 0 167 0 -4 188 -4 187 86 3 86 3 0 -444 0
-445 -78 -6 c-43 -4 -83 -5 -88 -2 -5 3 -6 90 -3 201 l5 195 -167 0 -167 0 1
-192 2 -193 -49 -7 c-26 -3 -65 -7 -85 -7 l-38 -1 0 450 0 451 86 -3 86 -3 -2
-187z"/>
<path d="M960 2123 c0 -220 0 -221 23 -227 35 -9 183 -7 211 3 56 22 100 157
82 254 -17 93 -125 172 -249 184 l-67 6 0 -220z"/>
<path d="M1625 1938 c-23 -62 -75 -225 -75 -235 0 -10 24 -13 96 -13 73 0 95
3 92 13 -51 142 -93 247 -100 247 -5 0 -11 -6 -13 -12z"/>
<path d="M2298 2094 c-5 -4 -8 -83 -8 -176 0 -131 3 -168 13 -168 7 0 32 14
55 31 23 17 49 29 57 25 20 -7 63 47 71 90 19 102 -41 190 -137 201 -24 3 -47
1 -51 -3z"/>
</g>
</svg>
